<svg xmlns="http://www.w3.org/2000/svg" width="21" height="21" fill="none"><path fill="#0E8B13" d="M10.5 9.63c3.437-3.125 5.208-4.73 5.208-6.76 0-1.563-1.302-2.803-2.865-2.803-.895 0-1.75.375-2.343 1.042C9.906.442 9.052.067 8.093.067c-1.562 0-2.802 1.302-2.802 2.865 0 1.968 1.771 3.573 5.209 6.698Zm-.854.854c-3.125-3.438-4.73-5.209-6.76-5.209C1.322 5.275.082 6.578.082 8.14c0 .896.375 1.75 1.042 2.344-.667.594-1.042 1.448-1.042 2.406 0 1.563 1.302 2.802 2.865 2.802 1.968 0 3.573-1.77 6.698-5.208Zm1.718 0c3.115 3.437 4.719 5.208 6.75 5.208 1.563 0 2.802-1.302 2.802-2.864 0-.896-.375-1.75-1.041-2.344.666-.594 1.041-1.448 1.041-2.406 0-1.563-1.302-2.803-2.864-2.803-1.969 0-3.573 1.771-6.688 5.209Zm-.864.854c-3.438 3.125-5.209 4.73-5.209 6.76 0 1.563 1.302 2.803 2.865 2.803.896 0 1.75-.375 2.344-1.042.593.666 1.448 1.041 2.406 1.041 1.562 0 2.802-1.302 2.802-2.864 0-1.969-1.77-3.573-5.208-6.698Z"/></svg>