<svg xmlns="http://www.w3.org/2000/svg" width="25" height="19" fill="none"><path fill="#FEFEFE" d="M1.3 18.058h22.4c.72-.042 1.3-.668 1.3-1.425V1.425c0-.78-.611-1.42-1.363-1.425H1.363C.611.005 0 .644 0 1.425v15.204c0 .761.58 1.387 1.3 1.43Z"/><path fill="#C8102E" d="M10.752 10.83v7.228h3.478V10.83H25V7.22H14.23V0h-3.478v7.219H0v3.611h10.752Z"/><path fill="#012169" d="M15.39 5.845V0h8.256c.57.01 1.06.38 1.259.903l-9.516 4.942ZM15.39 12.213v5.845h8.31c.548-.033 1.01-.4 1.205-.903l-9.516-4.942ZM9.592 12.213v5.845H1.3a1.384 1.384 0 0 1-1.205-.912l9.497-4.933ZM9.592 5.845V0H1.354A1.38 1.38 0 0 0 .095.912l9.497 4.933ZM0 6.02h3.465L0 4.217V6.02ZM25 6.02h-3.483L25 4.208v1.81ZM25 12.039h-3.483L25 13.849v-1.81ZM0 12.039h3.465L0 13.84v-1.801Z"/><path fill="#C8102E" d="M25 1.528 16.372 6.02h1.93L25 2.54V1.53ZM8.61 12.039H6.68L0 15.509v1.012l8.628-4.482H8.61ZM4.764 6.024h1.93L0 2.544v1.007l4.764 2.473ZM20.213 12.034h-1.93L25 15.528v-1.006l-4.787-2.488Z"/></svg>