<svg xmlns="http://www.w3.org/2000/svg" width="26" height="26" fill="none"><circle cx="13" cy="13.246" r="12.5" fill="url(#a)"/><g clip-path="url(#b)"><path fill="#fff" d="M13 9.944a3.79 3.79 0 0 0-3.795 3.795A3.79 3.79 0 0 0 13 17.534a3.79 3.79 0 0 0 3.795-3.795A3.79 3.79 0 0 0 13 9.944Zm0 6.261a2.472 2.472 0 0 1-2.467-2.466A2.472 2.472 0 0 1 13 11.272a2.472 2.472 0 0 1 2.466 2.467A2.472 2.472 0 0 1 13 16.205Zm3.95-7.301a.885.885 0 1 0 0 1.773.884.884 0 0 0 .82-1.226.884.884 0 0 0-.82-.547Zm3.448 4.835c0-1.022.009-2.034-.049-3.053-.057-1.184-.327-2.235-1.193-3.101-.868-.868-1.917-1.136-3.101-1.194-1.022-.057-2.034-.048-3.053-.048-1.022 0-2.034-.01-3.053.048-1.184.058-2.235.328-3.101 1.194-.868.867-1.137 1.917-1.194 3.1-.057 1.022-.048 2.034-.048 3.054s-.01 2.033.048 3.053c.057 1.184.328 2.235 1.194 3.101.867.868 1.917 1.136 3.1 1.194 1.022.057 2.034.048 3.054.048 1.021 0 2.033.009 3.053-.049 1.184-.057 2.235-.327 3.101-1.193.868-.868 1.136-1.917 1.193-3.101.06-1.02.049-2.032.049-3.053Zm-1.629 4.363a2.352 2.352 0 0 1-.558.847c-.261.261-.511.424-.848.56-.973.386-3.284.299-4.363.299-1.079 0-3.392.087-4.365-.298a2.352 2.352 0 0 1-.847-.559c-.261-.26-.424-.51-.56-.847-.384-.975-.297-3.286-.297-4.365 0-1.079-.087-3.392.298-4.365.135-.337.298-.588.559-.848.26-.259.51-.423.847-.558.973-.385 3.286-.298 4.365-.298 1.079 0 3.392-.087 4.365.298.337.135.588.298.847.558.261.261.424.511.56.848.384.973.297 3.286.297 4.365 0 1.079.087 3.39-.3 4.363Z"/></g><defs><linearGradient id="a" x1="6.036" x2="27.524" y1="4.436" y2="32.026" gradientUnits="userSpaceOnUse"><stop stop-color="#B72B4C"/><stop offset="1" stop-color="#E75909"/></linearGradient><clipPath id="b"><path fill="#fff" d="M5.5 6.239h15v15h-15z"/></clipPath></defs></svg>