<svg xmlns="http://www.w3.org/2000/svg" width="26" height="26" fill="none"><circle cx="13" cy="13.246" r="12.5" fill="#1F6CB4"/><g clip-path="url(#a)"><path fill="#fff" d="M18.288 6.836c-.186.014-.367.06-.539.134h-.002c-.164.068-.946.41-2.134.928l-4.26 1.866-6.06 2.655.036-.014s-.207.07-.423.225a1.193 1.193 0 0 0-.338.34c-.106.162-.192.41-.16.666.052.433.322.693.516.837.196.145.383.213.383.213h.005l2.817.987c.126.421.858 2.925 1.034 3.501.104.345.205.56.331.724a.835.835 0 0 0 .219.211.634.634 0 0 0 .142.064l-.029-.008c.009.003.016.01.022.012.023.007.039.01.068.014.446.14.804-.147.804-.147l.02-.017 1.664-1.575 2.787 2.224.064.028c.58.265 1.17.118 1.48-.143.314-.262.435-.597.435-.597l.02-.054 2.155-11.478c.06-.283.076-.548.009-.805-.07-.26-.23-.485-.45-.629a1.048 1.048 0 0 0-.616-.162Zm-.059 1.23c-.002.038.005.034-.011.107v.006l-2.134 11.358c-.01.016-.025.052-.068.087-.045.037-.08.06-.268-.017l-3.41-2.718-2.06 1.952.433-2.874 5.571-5.4c.23-.222.153-.269.153-.269.016-.272-.346-.08-.346-.08l-7.025 4.526-.002-.012-3.367-1.179v-.002l-.009-.002a.14.14 0 0 0 .017-.007l.019-.01.018-.006 6.062-2.656c1.53-.67 3.072-1.345 4.257-1.866 1.186-.518 2.062-.897 2.112-.918.047-.019.024-.019.058-.019Z"/></g><defs><clipPath id="a"><path fill="#fff" d="M4.401 6.239h15v15h-15z"/></clipPath></defs></svg>