<svg xmlns="http://www.w3.org/2000/svg" width="25" height="19" fill="none"><path fill="#0099B5" d="M0 2.778v2.778h25V2.778A2.779 2.779 0 0 0 22.222 0H2.778A2.778 2.778 0 0 0 0 2.778Z"/><path fill="#1EB53A" d="M25 15.28v-2.778H0v2.778a2.778 2.778 0 0 0 2.778 2.778h19.444A2.778 2.778 0 0 0 25 15.28Z"/><path fill="#CE1126" d="M0 5.557h25v1.042H0V5.557Zm0 5.903h25v1.042H0V11.46Z"/><path fill="#EEE" d="M0 9.03v2.43h25V6.598H0V9.03Z"/><path fill="#fff" d="M2.917 2.89A2.167 2.167 0 0 1 4.722.753a2.166 2.166 0 1 0 0 4.273A2.167 2.167 0 0 1 2.917 2.89Zm3.252 1.6-.097-.3-.098.3H5.66l.255.185-.097.3.255-.186.254.185-.097-.3.254-.185H6.17Zm1.876 0-.097-.3-.097.3h-.315l.255.185-.097.3.254-.186.255.185-.097-.3.254-.185h-.315Zm-.097-2.034-.097.3h-.315l.255.185-.097.3.254-.186.255.186-.097-.3.254-.185h-.315l-.097-.3ZM9.922 4.49l-.097-.299-.097.3h-.315l.254.185-.097.3.255-.186.255.185-.097-.3.254-.185h-.315Zm-.097-2.033-.097.3h-.315l.254.185-.097.3.255-.186.255.186-.097-.3.254-.185h-.315l-.097-.3Zm0-1.733-.097.3h-.315l.254.185-.097.299.255-.185.255.185-.097-.3.254-.185h-.315l-.097-.3Zm1.974 3.766-.097-.299-.097.3h-.315l.255.185-.098.3.255-.186.254.185-.097-.3.255-.185h-.315Zm-.097-2.033-.097.3h-.315l.255.185-.098.3.255-.186.254.186-.097-.3.255-.185h-.315l-.097-.3Zm0-1.733-.097.3h-.315l.255.185-.098.299.255-.185.254.185-.097-.3.255-.185h-.315l-.097-.3Zm1.974 3.766-.098-.299-.097.3h-.314l.255.185-.098.3.255-.186.254.185-.097-.3.255-.185h-.315Zm-.098-2.033-.097.3h-.314l.255.185-.098.3.255-.186.254.186-.097-.3.255-.185h-.315l-.098-.3Zm0-1.733-.097.3h-.314l.255.185-.098.299.255-.185.254.185-.097-.3.255-.185h-.315l-.098-.3Z"/></svg>